<?xml version="1.0" standalone="no"?>
<!DOCTYPE svg PUBLIC "-//W3C//DTD SVG 20010904//EN"
 "http://www.w3.org/TR/2001/REC-SVG-20010904/DTD/svg10.dtd">
<svg version="1.0" xmlns="http://www.w3.org/2000/svg"
 width="318.000000pt" height="159.000000pt" viewBox="0 0 318.000000 159.000000"
 preserveAspectRatio="xMidYMid meet">

<g transform="translate(0.000000,159.000000) scale(0.100000,-0.100000)"
fill="#000000" stroke="none">
<path d="M1630 1359 c-13 -24 -16 -127 -6 -184 4 -22 17 -48 29 -58 16 -14 18
-20 8 -27 -8 -4 -10 -13 -6 -19 10 -17 14 -61 5 -61 -16 0 -29 28 -32 70 l-3
45 -11 -45 c-8 -33 -8 -50 0 -65 7 -11 13 -45 14 -75 2 -30 7 -59 12 -65 4 -5
18 -39 31 -75 12 -35 28 -71 35 -78 17 -17 80 -12 76 6 -1 7 5 15 13 18 8 3
13 10 10 14 -3 4 14 6 37 3 24 -4 45 -10 46 -14 2 -5 11 -9 20 -9 15 0 15 -2
2 -10 -11 -7 -4 -10 27 -10 34 0 41 3 37 15 -8 20 0 19 41 -7 37 -25 42 -37
23 -57 -11 -10 -9 -12 7 -9 23 4 30 47 9 55 -8 3 -14 11 -14 19 0 8 -4 14 -10
14 -9 0 -5 211 6 259 4 20 7 22 15 10 8 -12 12 -11 24 5 13 17 15 18 15 3 0
-25 28 -21 32 5 2 13 11 24 21 26 15 3 17 -2 11 -36 -7 -47 10 -64 24 -24 5
15 19 37 31 49 12 12 21 27 21 33 0 6 4 9 9 6 12 -8 21 29 13 56 -5 21 -6 21
-13 2 -7 -17 -8 -17 -8 -1 -1 10 -10 27 -21 39 -11 12 -20 31 -21 42 0 21 0
21 -9 0 -5 -12 -13 -25 -19 -29 -6 -3 -11 -14 -11 -24 0 -10 -7 -32 -15 -47
l-15 -29 0 27 c0 15 5 30 10 33 13 8 13 62 1 69 -5 4 -12 0 -14 -6 -3 -7 -6
-3 -6 10 -1 21 -5 23 -38 21 -21 -2 -41 -8 -45 -14 -4 -5 -8 -1 -8 10 0 15 -6
20 -23 20 -13 -1 -27 -4 -33 -7 -13 -8 -77 -22 -88 -19 -5 1 -4 -5 4 -13 7 -9
18 -16 26 -16 8 0 12 -10 11 -29 -1 -22 -5 -27 -14 -19 -12 10 -18 -1 -14 -25
1 -4 -9 -2 -21 4 -21 11 -22 11 -10 -4 11 -13 10 -15 -5 -13 -10 2 -24 -3 -31
-11 -17 -17 -37 -17 -51 1 -9 11 -8 18 5 31 15 14 15 18 3 26 -8 5 -23 9 -34
9 -17 0 -17 2 -5 10 11 7 6 10 -20 10 l-35 0 25 20 c24 19 24 20 4 20 -12 0
-24 7 -28 15 -3 8 -12 15 -19 15 -20 0 -40 45 -33 74 4 15 15 26 29 29 l22 4
-22 2 c-13 0 -27 -7 -33 -20z m374 -125 c4 -9 4 -19 2 -22 -10 -9 -36 8 -36
23 0 20 26 19 34 -1z m-57 -36 c-3 -8 -6 -5 -6 6 -1 11 2 17 5 13 3 -3 4 -12
1 -19z m70 -50 c-3 -8 -6 -5 -6 6 -1 11 2 17 5 13 3 -3 4 -12 1 -19z m-228
-58 c45 0 37 -6 -16 -14 -23 -3 -45 -1 -48 4 -3 6 -1 10 5 10 6 0 8 6 4 13 -6
10 -4 10 7 0 7 -7 29 -13 48 -13z m231 -95 c0 -12 -7 -25 -15 -29 -11 -4 -14
0 -11 17 3 12 5 28 5 35 2 23 21 2 21 -23z m-62 -16 c13 -20 12 -21 -23 -16
-41 6 -59 17 -27 17 12 0 22 5 22 10 0 17 14 11 28 -11z m62 -90 c0 -31 -19
-41 -21 -11 -1 9 -3 27 -4 40 -2 18 0 20 11 11 8 -6 14 -24 14 -40z m-70 31
c0 -5 -2 -10 -4 -10 -3 0 -8 5 -11 10 -3 6 -1 10 4 10 6 0 11 -4 11 -10z
m-104 -38 c-3 -5 4 -19 16 -32 17 -18 28 -21 60 -17 31 4 37 3 28 -8 -12 -15
-61 -7 -98 16 -22 14 -31 49 -11 49 5 0 8 -4 5 -8z m-78 -81 c10 -6 8 -10 -10
-14 -36 -10 -42 -8 -28 8 14 17 20 18 38 6z"/>
<path d="M2467 1345 c-37 -13 -58 -25 -43 -25 4 0 16 5 27 11 11 6 33 11 50
11 16 1 29 5 29 10 0 11 -18 9 -63 -7z"/>
<path d="M2380 1300 c-9 -6 -10 -10 -3 -10 6 0 15 5 18 10 8 12 4 12 -15 0z"/>
<path d="M2292 1244 c-12 -8 -26 -13 -31 -10 -4 3 -16 0 -25 -7 -16 -12 -16
-14 3 -31 18 -16 21 -17 21 -3 0 8 15 27 33 41 35 28 35 35 -1 10z"/>
<path d="M2330 1220 c0 -5 7 -7 15 -4 8 4 15 8 15 10 0 2 -7 4 -15 4 -8 0 -15
-4 -15 -10z"/>
<path d="M1800 1194 c0 -16 9 -18 28 -5 10 6 9 10 -7 14 -14 3 -21 0 -21 -9z"/>
<path d="M2400 1160 c-13 -8 -13 -10 0 -10 11 0 11 -3 2 -12 -14 -14 -16 -58
-3 -58 5 0 11 10 15 22 4 17 8 20 16 12 8 -8 6 -21 -9 -45 -12 -19 -21 -45
-21 -59 l0 -24 21 21 c14 13 22 36 24 67 1 25 8 52 14 59 22 27 -26 48 -59 27z"/>
<path d="M2216 994 l-19 -26 24 7 c31 10 43 21 35 34 -11 16 -19 13 -40 -15z"/>
<path d="M2180 942 c-11 -9 -23 -31 -26 -49 -5 -26 -2 -34 20 -48 28 -19 72
-23 86 -9 13 15 22 54 12 54 -5 0 -12 -9 -15 -20 -3 -11 -10 -20 -16 -20 -9 0
-9 6 -1 19 8 16 6 22 -7 30 -10 5 -14 13 -10 17 4 5 17 3 27 -4 27 -17 32 -15
21 7 -6 10 -24 24 -40 29 -25 9 -34 7 -51 -6z"/>
<path d="M2314 885 c11 -8 26 -15 33 -15 7 0 18 -11 23 -24 5 -14 19 -25 34
-28 23 -5 25 -3 14 11 -38 48 -68 71 -95 71 -27 -1 -27 -1 -9 -15z"/>
<path d="M2130 836 c0 -8 4 -17 9 -20 5 -4 7 3 4 14 -6 23 -13 26 -13 6z"/>
<path d="M2310 841 c0 -10 -69 -37 -82 -33 -14 4 -8 -26 8 -42 22 -23 47 -20
73 8 17 18 19 25 9 29 -10 4 -11 7 0 18 15 16 16 29 2 29 -5 0 -10 -4 -10 -9z"/>
<path d="M2330 740 c-8 -5 -10 -10 -5 -10 6 0 17 5 25 10 8 5 11 10 5 10 -5 0
-17 -5 -25 -10z"/>
<path d="M1680 695 c0 -8 -4 -15 -10 -15 -5 0 -10 -7 -10 -15 0 -8 -4 -15 -10
-15 -5 0 -10 -7 -10 -16 0 -9 -9 -27 -20 -41 -11 -14 -20 -32 -20 -39 0 -7 -8
-19 -18 -26 -18 -14 -19 -19 -23 -136 -1 -56 2 -76 15 -91 23 -25 33 -115 16
-147 -23 -42 -4 -48 155 -52 118 -4 145 -2 145 9 0 9 -12 14 -38 14 -30 0 -39
4 -49 25 -11 23 -11 24 -12 4 -1 -22 -25 -39 -42 -28 -15 9 -10 71 6 78 8 3
14 11 13 18 -2 7 8 13 22 13 14 0 53 11 87 24 l62 23 30 -23 c39 -32 61 -71
61 -107 0 -28 2 -29 61 -36 81 -8 194 -8 186 1 -4 3 -24 6 -45 5 -21 -1 -47 4
-57 12 -17 12 -21 12 -31 -2 -10 -14 -14 -11 -30 19 -10 19 -17 37 -16 42 2 7
-14 11 -31 8 -4 -1 -10 6 -14 14 -3 9 -22 24 -42 35 -20 10 -60 42 -90 69 -32
30 -64 51 -77 51 -30 0 -39 26 -11 35 22 6 22 6 2 15 -19 8 -19 9 3 9 27 1 29
17 2 26 -16 5 -18 10 -10 26 8 15 7 19 -4 19 -16 0 -28 24 -20 44 3 8 1 17 -5
21 -6 3 -11 15 -11 26 0 10 -7 19 -15 19 -9 0 -12 6 -8 18 3 9 3 14 -1 10 -9
-7 -39 21 -56 51 -13 24 -30 28 -30 6z m110 -155 c0 -5 -5 -10 -11 -10 -5 0
-7 5 -4 10 3 6 8 10 11 10 2 0 4 -4 4 -10z"/>
<path d="M1770 696 c0 -2 7 -6 15 -10 8 -3 15 -1 15 4 0 6 -7 10 -15 10 -8 0
-15 -2 -15 -4z"/>
<path d="M2255 370 c-3 -5 1 -10 9 -10 9 0 16 5 16 10 0 6 -4 10 -9 10 -6 0
-13 -4 -16 -10z"/>
<path d="M2205 350 c4 -6 11 -8 16 -5 14 9 11 15 -7 15 -8 0 -12 -5 -9 -10z"/>
<path d="M2380 350 c19 -13 30 -13 30 0 0 6 -10 10 -22 10 -19 0 -20 -2 -8
-10z"/>
<path d="M2290 341 c0 -6 4 -13 10 -16 6 -3 7 1 4 9 -7 18 -14 21 -14 7z"/>
<path d="M2166 321 c-16 -18 -32 -71 -21 -71 7 0 75 68 75 75 0 12 -42 10 -54
-4z"/>
<path d="M2225 322 c-13 -13 -3 -22 20 -16 13 3 39 1 57 -5 18 -6 28 -7 23 -2
-12 12 -92 31 -100 23z"/>
<path d="M1915 120 c-3 -5 1 -10 10 -10 9 0 13 5 10 10 -3 6 -8 10 -10 10 -2
0 -7 -4 -10 -10z"/>
</g>
</svg>
